# xmcd
# 
# Track frame offsets:
#     150
#     6463
#     15088
#     26875
#     39335
#     49725
#     63138
#     68825
#     88225
#     99238
#     114700
#     124150
# 
# Disc length: 1945
# 
# Revision: 1
# Processed by: cddbd v1.5.2PL0 Copyright (c) Steve Scherf et al.
# Submitted via: BonkEnc v1.0.6
# 
DISCID=9507970c
DTITLE=ルースターズ - ROOSTERZ
DYEAR=0
DGENRE=Rock
TTITLE0=テキーラ
TTITLE1=恋をしようよ
TTITLE2=カモン・エブリバディ
TTITLE3=モナ
TTITLE4=フール・フォー・ユー
TTITLE5=ハリー・アップ
TTITLE6=イン・アンド・アウト
TTITLE7=ドゥ・ザ・ブギ
TTITLE8=新型セドリック
TTITLE9=どうしようもない恋の唄
TTITLE10=気をつけろ
TTITLE11=ロージー
EXTD=
EXTT0=
EXTT1=
EXTT2=
EXTT3=
EXTT4=
EXTT5=
EXTT6=
EXTT7=
EXTT8=
EXTT9=
EXTT10=
EXTT11=
PLAYORDER=
